HIERARCHY
ROOT hips
{
  OFFSET 0 10.6860622 2.3727825e-15
  CHANNELS 6 Xposition Yposition Zposition Yrotation Xrotation Zrotation
  JOINT leftUpperLeg
  {
    OFFSET 0.6642549969 -0.9402397400000004 0
    CHANNELS 3 Yrotation Xrotation Zrotation
    JOINT leftLowerLeg
    {
      OFFSET 0 -3.997221335632195 0
      CHANNELS 3 Yrotation Xrotation Zrotation
      JOINT leftFoot
      {
        OFFSET -0.13777839790000004 -4.6145792000000005 -0.22186036399999998
        CHANNELS 3 Yrotation Xrotation Zrotation
        JOINT leftToes
        {
          OFFSET -0.03777410834999995 -0.9130806927000008 0.85230013
          CHANNELS 3 Yrotation Xrotation Zrotation
          End Site
          {
            OFFSET -0.03777410834999995 -0.9130806927000008 0.85230013
          }
        }
      }
    }
  }
  JOINT rightUpperLeg
  {
    OFFSET -0.6642778626 -0.9402397400000004 0
    CHANNELS 3 Yrotation Xrotation Zrotation
    JOINT rightLowerLeg
    {
      OFFSET 0 -3.997221452859387 0
      CHANNELS 3 Yrotation Xrotation Zrotation
      JOINT rightFoot
      {
        OFFSET 0.1377926176 -4.6145792000000005 -0.22185782299999995
        CHANNELS 3 Yrotation Xrotation Zrotation
        JOINT rightToes
        {
          OFFSET 0.037780746850000047 -0.9130806927000008 0.85230167
          CHANNELS 3 Yrotation Xrotation Zrotation
          End Site
          {
            OFFSET 0.037780746850000047 -0.9130806927000008 0.85230167
          }
        }
      }
    }
  }
  JOINT spine
  {
    OFFSET 0 0.13988381660000015 0
    CHANNELS 3 Yrotation Xrotation Zrotation
    JOINT chest
    {
      OFFSET 0 0.6191039003973773 0
      CHANNELS 3 Yrotation Xrotation Zrotation
      JOINT upperChest
      {
        OFFSET 0 0.9855186130586943 0
        CHANNELS 3 Yrotation Xrotation Zrotation
        JOINT leftShoulder
        {
          OFFSET 0.1807663869 1.5087829790000005 0
          CHANNELS 3 Yrotation Xrotation Zrotation
          JOINT leftUpperArm
          {
            OFFSET 0.5985063006419806 0 0
            CHANNELS 3 Yrotation Xrotation Zrotation
            JOINT leftLowerArm
            {
              OFFSET 2.2993332369501065 0 0
              CHANNELS 3 Yrotation Xrotation Zrotation
              JOINT leftHand
              {
                OFFSET 2.395047042602395 0 0
                CHANNELS 3 Yrotation Xrotation Zrotation
                JOINT leftIndexProximal
                {
                  OFFSET 0.5766295810000004 0.04556643899499946 0.17265095988184
                  CHANNELS 3 Yrotation Xrotation Zrotation
                  JOINT leftIndexIntermediate
                  {
                    OFFSET 0.2957229000000008 -0.019352197700001517 -0.007932640616999987
                    CHANNELS 3 Yrotation Xrotation Zrotation
                    JOINT leftIndexDistal
                    {
                      OFFSET 0.19008243099999922 -0.012484908149998475 -0.002786250786000012
                      CHANNELS 3 Yrotation Xrotation Zrotation
                      End Site
                      {
                        OFFSET 0.19008243099999922 -0.012484908149998475 -0.002786250786000012
                      }
                    }
                  }
                }
                JOINT leftMiddleProximal
                {
                  OFFSET 0.5834975091000001 0.0524350405149987 0.02204081888183999
                  CHANNELS 3 Yrotation Xrotation Zrotation
                  JOINT leftMiddleIntermediate
                  {
                    OFFSET 0.33880573540000003 -0.019871473270000717 -0.00000971183179999946
                    CHANNELS 3 Yrotation Xrotation Zrotation
                    JOINT leftMiddleDistal
                    {
                      OFFSET 0.20676022730000088 -0.012221336379999448 0.0001471936708000235
                      CHANNELS 3 Yrotation Xrotation Zrotation
                      End Site
                      {
                        OFFSET 0.20676022730000088 -0.012221336379999448 0.0001471936708000235
                      }
                    }
                  }
                }
                JOINT leftLittleProximal
                {
                  OFFSET 0.5344154683999995 -0.012880921405001189 -0.24414037221816004
                  CHANNELS 3 Yrotation Xrotation Zrotation
                  JOINT leftLittleIntermediate
                  {
                    OFFSET 0.21758961730000093 -0.011650919939999227 0.011893592810000034
                    CHANNELS 3 Yrotation Xrotation Zrotation
                    JOINT leftLittleDistal
                    {
                      OFFSET 0.1475273964999999 -0.008152365682999818 0.006001092492999946
                      CHANNELS 3 Yrotation Xrotation Zrotation
                      End Site
                      {
                        OFFSET 0.1475273964999999 -0.008152365682999818 0.006001092492999946
                      }
                    }
                  }
                }
                JOINT leftRingProximal
                {
                  OFFSET 0.5799399463000003 0.026911854694997794 -0.12150566991816003
                  CHANNELS 3 Yrotation Xrotation Zrotation
                  JOINT leftRingIntermediate
                  {
                    OFFSET 0.26167887460000006 -0.013480186499999602 0.010996293000000053
                    CHANNELS 3 Yrotation Xrotation Zrotation
                    JOINT leftRingDistal
                    {
                      OFFSET 0.17667108799999987 -0.008990287899999228 0.0055541023999999065
                      CHANNELS 3 Yrotation Xrotation Zrotation
                      End Site
                      {
                        OFFSET 0.17667108799999987 -0.008990287899999228 0.0055541023999999065
                      }
                    }
                  }
                }
                JOINT leftThumbProximal
                {
                  OFFSET 0.11018806699999972 -0.09448718900500053 0.17047963138184
                  CHANNELS 3 Yrotation Xrotation Zrotation
                  JOINT leftThumbIntermediate
                  {
                    OFFSET 0.31062601459999983 -0.08126270900000132 0.15443142000000007
                    CHANNELS 3 Yrotation Xrotation Zrotation
                    JOINT leftThumbDistal
                    {
                      OFFSET 0.21627175790000086 -0.08833193599999878 0.018771167799999988
                      CHANNELS 3 Yrotation Xrotation Zrotation
                      End Site
                      {
                        OFFSET 0.21627175790000086 -0.08833193599999878 0.018771167799999988
                      }
                    }
                  }
                }
              }
            }
          }
        }
        JOINT neck
        {
          OFFSET 0 1.5463305265074576 0
          CHANNELS 3 Yrotation Xrotation Zrotation
          JOINT head
          {
            OFFSET 0 0.8456443600000344 0
            CHANNELS 3 Yrotation Xrotation Zrotation
            JOINT leftEye
            {
              OFFSET 0.30408573140000006 0.5104519199999995 0.1276382305
              CHANNELS 3 Yrotation Xrotation Zrotation
              End Site
              {
                OFFSET 0.30408573140000006 0.5104519199999995 0.1276382305
              }
            }
            JOINT rightEye
            {
              OFFSET -0.30409491089999996 0.5104519199999995 0.1276379445
              CHANNELS 3 Yrotation Xrotation Zrotation
              End Site
              {
                OFFSET -0.30409491089999996 0.5104519199999995 0.1276379445
              }
            }
            JOINT jaw
            {
              OFFSET -3.155239131000001e-7 -0.11984121820000082 0.60178107
              CHANNELS 3 Yrotation Xrotation Zrotation
              End Site
              {
                OFFSET -3.155239131000001e-7 -0.11984121820000082 0.60178107
              }
            }
          }
        }
        JOINT rightShoulder
        {
          OFFSET -0.1807303465 1.5087829790000005 0
          CHANNELS 3 Yrotation Xrotation Zrotation
          JOINT rightUpperArm
          {
            OFFSET -0.5985063796536958 0 0
            CHANNELS 3 Yrotation Xrotation Zrotation
            JOINT rightLowerArm
            {
              OFFSET -2.2993322059002854 0 0
              CHANNELS 3 Yrotation Xrotation Zrotation
              JOINT rightHand
              {
                OFFSET -2.395045314457259 0 0
                CHANNELS 3 Yrotation Xrotation Zrotation
                JOINT rightIndexProximal
                {
                  OFFSET -0.5764487688300002 0.0441371204405987 0.17361932004999997
                  CHANNELS 3 Yrotation Xrotation Zrotation
                  JOINT rightIndexIntermediate
                  {
                    OFFSET -0.29573011380000047 -0.01934826376999843 -0.007698921482999974
                    CHANNELS 3 Yrotation Xrotation Zrotation
                    JOINT rightIndexDistal
                    {
                      OFFSET -0.19008373999999884 -0.012503266380000655 -0.0026365778999999897
                      CHANNELS 3 Yrotation Xrotation Zrotation
                      End Site
                      {
                        OFFSET -0.19008373999999884 -0.012503266380000655 -0.0026365778999999897
                      }
                    }
                  }
                }
                JOINT rightMiddleProximal
                {
                  OFFSET -0.5834852037300005 0.05211639405060153 0.02307162440000001
                  CHANNELS 3 Yrotation Xrotation Zrotation
                  JOINT rightMiddleIntermediate
                  {
                    OFFSET -0.33880114510000003 -0.019952774050000954 0.0002455003561999819
                    CHANNELS 3 Yrotation Xrotation Zrotation
                    JOINT rightMiddleDistal
                    {
                      OFFSET -0.20675694929999955 -0.012273788999999091 0.00030209124000002766
                      CHANNELS 3 Yrotation Xrotation Zrotation
                      End Site
                      {
                        OFFSET -0.20675694929999955 -0.012273788999999091 0.00030209124000002766
                      }
                    }
                  }
                }
                JOINT rightLittleProximal
                {
                  OFFSET -0.5346811737299992 -0.011214256288399227 -0.24363941305000003
                  CHANNELS 3 Yrotation Xrotation Zrotation
                  JOINT rightLittleIntermediate
                  {
                    OFFSET -0.21757715980000092 -0.011771559690000988 0.01201554387
                    CHANNELS 3 Yrotation Xrotation Zrotation
                    JOINT rightLittleDistal
                    {
                      OFFSET -0.1475201849000004 -0.00822055339600003 0.006082065407000015
                      CHANNELS 3 Yrotation Xrotation Zrotation
                      End Site
                      {
                        OFFSET -0.1475201849000004 -0.00822055339600003 0.006082065407000015
                      }
                    }
                  }
                }
                JOINT rightRingProximal
                {
                  OFFSET -0.5800810755299999 0.027657985680600072 -0.12066365025000003
                  CHANNELS 3 Yrotation Xrotation Zrotation
                  JOINT rightRingIntermediate
                  {
                    OFFSET -0.26166445029999974 -0.013623118409999302 0.011164098990000045
                    CHANNELS 3 Yrotation Xrotation Zrotation
                    JOINT rightRingDistal
                    {
                      OFFSET -0.17666387530000027 -0.009072900100000503 0.005668185599999959
                      CHANNELS 3 Yrotation Xrotation Zrotation
                      End Site
                      {
                        OFFSET -0.17666387530000027 -0.009072900100000503 0.005668185599999959
                      }
                    }
                  }
                }
                JOINT rightThumbProximal
                {
                  OFFSET -0.10997596379000074 -0.09577489355940072 0.16989765924999997
                  CHANNELS 3 Yrotation Xrotation Zrotation
                  JOINT rightThumbIntermediate
                  {
                    OFFSET -0.31036620999999986 -0.08229339117999834 0.15440884469999996
                    CHANNELS 3 Yrotation Xrotation Zrotation
                    JOINT rightThumbDistal
                    {
                      OFFSET -0.21631306399999906 -0.08825326400000111 0.018656797720000014
                      CHANNELS 3 Yrotation Xrotation Zrotation
                      End Site
                      {
                        OFFSET -0.21631306399999906 -0.08825326400000111 0.018656797720000014
                      }
                    }
                  }
                }
              }
            }
          }
        }
      }
    }
  }
}
MOTION
Frames: 5
Frame Time: 0.03333333333333333
0 -8.220620158475466 8.701696261882379 -179.99067026874414 71.0095019753185 0.013091938372083743 -69.34315490795004 -69.57575164390416 124.77253055358142 173.66356969354467 48.39870332620956 169.3470150242793 2.5999953851483415 20.170032906215674 5.646144814233164 0 0 0 69.33927271636327 -69.58273038105646 -124.79360075206003 -173.64227844075404 48.39712939205675 -169.34976998537968 -2.5903024558298955 20.17040218532391 -5.651532557718755 0 0 0 -0.7911866247075294 35.4203543767433 -1.480212537850494 -0.682008709063924 -29.450749032862298 0.04004607065445559 0 0 0 -6.489922880462312 22.166814615534882 20.586791175145557 -25.43312092401694 -60.44286544832212 -1.8061625011011058 -112.87950659796482 -3.2902143403677924 33.89038314909854 -10.339550587498913 14.752106959665872 4.764702908267763 0 0 0 0 0 0 0 0 0 0 0 0 0 0 0 0 0 0 0 0 0 0 0 0 0 0 0 0 0 0 0 0 0 0 0 0 0 0 0 0 0 0 0 0 0 0 -13.705973171271696 0 -0.0016060232000511033 -22.567539567770798 -0.054956700657758345 0 0 0 0 0 0 0 0 0 6.890724864912122 22.449149199567106 -21.294642840097467 20.701018972331894 -61.59414786196118 7.354212033754942 112.72128098070199 -3.3433427438817542 -33.997877901321715 11.635472212045869 6.126727312120325 -19.016792274283425 0 0 0 0 0 0 0 0 0 0 0 0 0 0 0 0 0 0 0 0 0 0 0 0 0 0 0 0 0 0 0 0 0 0 0 0 0 0 0 0 0 0 0 0 0
0 -8.220620158475466 8.710352315220408 -179.99067026874414 71.0095019753185 0.013091938372083743 -69.65491539210502 -69.5034851257313 125.06415449788449 173.66356969354467 48.39870332620956 169.3470150242793 2.5999953851483415 20.170032906215674 5.646144814233164 0 0 0 69.65127342200795 -69.51033298219156 -125.08491147979376 -173.64227844075404 48.39712939205675 -169.34976998537968 -2.5903024558298955 20.17040218532391 -5.651532557718755 0 0 0 -0.7923662439382185 35.545334321377354 -1.4823089539430419 -0.682008709063924 -29.450747071919334 0.04004605150462644 0 0 0 -6.347456950002832 21.91347536552188 20.752564562281552 -25.43312092401694 -60.44286544832212 -1.8061625011011058 -112.87950659796482 -3.2902143403677924 33.89038314909854 -10.189064436417684 14.680483913892461 4.8872309151045235 0 0 0 0 0 0 0 0 0 0 0 0 0 0 0 0 0 0 0 0 0 0 0 0 0 0 0 0 0 0 0 0 0 0 0 0 0 0 0 0 0 0 0 0 0 0 -13.930713417099273 0 -0.0015836598744330191 -22.792375504125772 -0.0549835030725009 0 0 0 0 0 0 0 0 0 6.741233981031308 22.1913359495861 -21.44808966916934 20.958731622865002 -61.5725828278947 7.20312402913747 112.72127940298411 -3.3433414610378667 -33.997877901321715 11.506377952229943 6.048023641646752 -19.128428942660925 0 0 0 0 0 0 0 0 0 0 0 0 0 0 0 0 0 0 0 0 0 0 0 0 0 0 0 0 0 0 0 0 0 0 0 0 0 0 0 0 0 0 0 0 0
0 -8.220620158475466 8.727664153504193 -179.99067026874414 71.0095019753185 0.013091938372083743 -70.27217599855587 -69.35729542218398 125.64112508960014 173.66356969354467 48.39870332620956 169.3470150242793 2.5999953851483415 20.170032906215674 5.646144814233164 0 0 0 70.26900612584276 -69.36386429827813 -125.66119390279582 -173.64227844075404 48.39712939205675 -169.34976998537968 -2.5903024558298955 20.17040218532391 -5.651532557718755 0 0 0 -0.7947466689921568 35.795308377823936 -1.4865209956442451 -0.682008709063924 -29.450747071919334 0.04004605150462644 0 0 0 -6.065502548268382 21.40540808166404 21.081362731037405 -25.43312092401694 -60.44286544832212 -1.8061625011011058 -112.87950659796482 -3.2902143403677924 33.89038314909854 -9.888656246784139 14.536274317068653 5.131624614958999 0 0 0 0 0 0 0 0 0 0 0 0 0 0 0 0 0 0 0 0 0 0 0 0 0 0 0 0 0 0 0 0 0 0 0 0 0 0 0 0 0 0 0 0 0 0 -14.38031700066422 0 -0.0015377992637699506 -23.242178133758046 -0.05503815333053633 0 0 0 0 0 0 0 0 0 6.445150761926268 21.674355192951946 -21.752114188212918 21.473306800226883 -61.52848041450083 6.901841383342771 112.72127940298411 -3.3433414610378667 -33.997877901321715 11.248665167571863 5.889839407348147 -19.351157643137725 0 0 0 0 0 0 0 0 0 0 0 0 0 0 0 0 0 0 0 0 0 0 0 0 0 0 0 0 0 0 0 0 0 0 0 0 0 0 0 0 0 0 0 0 0
0 -8.220620292671601 8.73632020684222 -179.99067026874414 71.0095019753185 0.013091938372083743 -70.57770427710251 -69.28337353373311 125.92648720721266 173.66356969354467 48.39870332620956 169.3470150242793 2.5999953851483415 20.170032906215674 5.646144814233164 0 0 0 70.57474916008096 -69.28981376153325 -125.94621387543637 -173.64227844075404 48.39712939205675 -169.34976998537968 -2.5903024558298955 20.17040218532391 -5.651532557718755 0 0 0 -0.795948278350659 35.92030372743062 -1.4886367201861506 -0.682008709063924 -29.450747071919334 0.04004605150462644 0 0 0 -5.9260036560592155 21.150706093581398 21.24440420059978 -25.43312092401694 -60.44286544832212 -1.8061625011011058 -112.87950659796482 -3.2902143403677924 33.89038314909854 -9.738742682333053 14.463696104885976 5.253488134436148 0 0 0 0 0 0 0 0 0 0 0 0 0 0 0 0 0 0 0 0 0 0 0 0 0 0 0 0 0 0 0 0 0 0 0 0 0 0 0 0 0 0 0 0 0 0 -14.60517516569375 0 -0.0015148399158083114 -23.467129880229457 -0.05506530197899124 0 0 0 0 0 0 0 0 0 6.2985478278495926 21.41520961687158 -21.902713863842937 21.73016151514002 -61.505944408035326 6.75166463367804 112.72127940298411 -3.3433414610378667 -33.997877901321715 11.120046610161253 5.810361770008019 -19.462246769508646 0 0 0 0 0 0 0 0 0 0 0 0 0 0 0 0 0 0 0 0 0 0 0 0 0 0 0 0 0 0 0 0 0 0 0 0 0 0 0 0 0 0 0 0 0
0 -8.220620426867738 8.744976260180248 -179.99067026874414 71.0095019753185 0.013091938372083743 -70.88115017183884 -69.20892364686901 126.2097657371579 173.66356969354467 48.39870332620956 169.3470150242793 2.5999953851483415 20.170032906215674 5.646144814233164 0 0 0 70.8784029656437 -69.21522633578367 -126.22914475096199 -173.64227844075404 48.39712939205675 -169.34976998537968 -2.5903024558298955 20.17040218532391 -5.651532557718755 0 0 0 -0.7971575789734651 36.04530263921665 -1.4907591498829005 -0.682008709063924 -29.450747071919334 0.04004605150462644 0 0 0 -5.787518715720955 20.8956371931717 21.40650235884243 -25.43312092401694 -60.44286544832212 -1.8061625011011058 -112.87950659796482 -3.2902143403677924 33.89038314909854 -9.589037598747478 14.390808418455796 5.375115943773298 0 0 0 0 0 0 0 0 0 0 0 0 0 0 0 0 0 0 0 0 0 0 0 0 0 0 0 0 0 0 0 0 0 0 0 0 0 0 0 0 0 0 0 0 0 0 -14.83003123628736 0 -0.0014917247123867575 -23.692081575236347 -0.05509259161371344 0 0 0 0 0 0 0 0 0 6.152933427836475 21.155708157745117 -22.052336595845574 21.986702715151242 -61.48308851441278 6.601811014439738 112.72127940298411 -3.3433414610378667 -33.997877901321715 10.991601997121979 5.730636643990889 -19.57314049082187 0 0 0 0 0 0 0 0 0 0 0 0 0 0 0 0 0 0 0 0 0 0 0 0 0 0 0 0 0 0 0 0 0 0 0 0 0 0 0 0 0 0 0 0 0
